<svg width="66" height="66" viewBox="0 0 66 66" fill="none" xmlns="http://www.w3.org/2000/svg">
<rect width="66" height="66" rx="8.88889" fill="white"/>
<path d="M0 45.26L13.75 9.47L18.85 9.47L33.50 45.26L28.10 45.26L23.93 34.42L8.96 34.42L5.03 45.26L0 45.26M10.33 30.57L22.46 30.57L18.73 20.65Q17.02 16.14 16.19 13.23Q15.50 16.67 14.26 20.07L10.33 30.57ZM37.28 45.26L37.28 9.47L50.78 9.47Q54.35 9.47 56.23 9.81Q58.86 10.25 60.64 11.49Q62.43 12.72 63.51 14.94Q64.60 17.16 64.60 19.82Q64.60 24.39 61.69 27.55Q58.79 30.71 51.20 30.71L42.02 30.71L42.02 45.26L37.28 45.26M42.02 26.49L51.27 26.49Q55.86 26.49 57.79 24.78Q59.72 23.07 59.72 19.97Q59.72 17.72 58.58 16.13Q57.45 14.53 55.59 14.01Q54.39 13.70 51.17 13.70L42.02 13.70L42.02 26.49Z" fill="url(#paint0_linear_1545_39)" />
<defs>
<linearGradient id="paint0_linear_1545_39" x1="8" y1="35.5" x2="38.0109" y2="10.5484" gradientUnits="userSpaceOnUse">
<stop stop-color="#989FFF"/>
<stop offset="1" stop-color="#29A2FF"/>
</linearGradient>
</defs>
</svg>
